<svg width="3012" height="2324" viewBox="0 0 3012 2324" fill="none" xmlns="http://www.w3.org/2000/svg">
<path d="M2893.38 1260.42C2933.99 1267.52 2947.4 1266.39 2946.11 1247.26C2945.28 1234.83 2933.66 1229.61 2910.08 1226.59C2897.07 1224.9 2877.24 1222.71 2859.69 1223.17C2826.13 1224 2823.9 1236.4 2821.52 1251.08L2826.95 1175.32C2827.22 1190.19 2827.21 1203.52 2860.74 1208.58C2878.02 1211.73 2898.36 1212.23 2911.12 1212.2C2934.89 1212.57 2947.23 1207.74 2949.77 1196.12C2954.31 1175.32 2930.16 1174.92 2899.41 1176.33L2960.91 1165.51C2958.46 1173.14 2953.25 1192.75 2951.1 1222.68C2948.96 1252.6 2951.38 1272 2952.71 1279.91L2893.38 1260.42Z" fill="#565656"/>
<path d="M2804.93 1322.88C2797.21 1356.95 2819.42 1388.66 2862.01 1398.32C2897.57 1406.38 2932.97 1386.76 2940.49 1353.61C2948 1320.46 2924.48 1287.67 2888.92 1279.61C2846.33 1269.96 2812.02 1291.58 2804.93 1322.88ZM2861.4 1299.66C2902.9 1290.96 2930.55 1306.38 2935.37 1326.36C2939.59 1342.11 2922.13 1369.31 2881.19 1378.13C2841.54 1387.25 2816.47 1374.17 2811.14 1353.88C2806.17 1337.18 2820.8 1311.29 2861.4 1299.66Z" fill="#565656"/>
<path d="M2861.9 1533.22C2870.52 1545.77 2867.57 1555.02 2866.84 1557.8L2919.81 1428.06C2918.38 1430.55 2913.87 1439.58 2898.94 1442.51C2885.59 1445.06 2875.95 1441.54 2865.94 1431.91C2838.48 1405.73 2791.83 1380.32 2767.38 1441.72C2741.88 1502.68 2792.98 1517.18 2830.91 1517.7C2844.73 1518.01 2854.15 1522.06 2861.9 1533.22ZM2771.25 1443.3C2786.18 1406.73 2817.36 1415.77 2843.33 1442.57C2863.67 1463.59 2876.75 1453.14 2893.48 1455.87C2906.23 1457.79 2899 1478.02 2892.9 1492.96C2886.87 1507.73 2877.88 1527.23 2867.36 1519.86C2853.5 1510.1 2851.39 1494.68 2822.23 1494.26C2784.71 1493.71 2757.11 1477.93 2771.25 1443.3Z" fill="#565656"/>
<path d="M2724.44 1539.89C2750.15 1518.85 2755.5 1511.2 2745.42 1501.35L2799.97 1548.39C2773.93 1532.74 2755.67 1513.93 2727.61 1543.5C2707.96 1564.35 2720.27 1589.57 2742.86 1596.83C2751.88 1599.46 2764.08 1596.26 2779.79 1579.92C2786 1573.44 2806.93 1544.76 2833.63 1558.16C2868.51 1575.24 2835.54 1621.51 2817.08 1642.18L2757.02 1624.9C2796.85 1635.41 2822.03 1630.33 2832.25 1613.21C2841.8 1597.24 2836.71 1582.61 2818.14 1576.38C2807.48 1572.79 2795.4 1570.13 2781.98 1584.07C2763.86 1602.29 2749.74 1620.43 2729.59 1615.03C2697.76 1605.89 2692.85 1564.98 2724.44 1539.89Z" fill="#565656"/>
<path d="M2597.19 1712.52L2662.19 1634.2C2664.92 1649.05 2675.77 1665.71 2704.14 1688.02C2731.34 1709.36 2762.3 1719.03 2768.71 1713.98L2710.5 1784.11C2716.3 1776.83 2736.01 1749.52 2737.49 1734.95C2739.35 1715.76 2705.84 1712.14 2674.65 1678.36C2662.2 1664.81 2647.36 1658.91 2634.14 1674.84C2599.93 1711.59 2627.87 1726.39 2660.05 1747.67L2597.19 1712.52Z" fill="#565656"/>
<path d="M2525.42 1782.45L2594.19 1715.35C2595.32 1732.29 2607.04 1751.09 2630.4 1773.13C2657.08 1798.3 2683.79 1810.45 2691.77 1805.85C2665.66 1821.24 2628.32 1855.56 2625.85 1870.16L2572.54 1837.55C2574.94 1838.92 2601.22 1853.61 2626.42 1846.27C2637.99 1844.26 2669.01 1822.49 2656.01 1809.17C2631.35 1783.89 2594.02 1805.18 2595.48 1817.82C2596.62 1823.07 2602.72 1829.86 2605.37 1832.04L2561.16 1801.96C2619.61 1810.2 2622.21 1784.04 2609.65 1768.72C2606.87 1765.06 2601.04 1758.81 2590.37 1752.77C2575.94 1747.22 2565.15 1750.58 2556.47 1758.26C2528.91 1782.49 2545.64 1808.88 2565.5 1842.29L2525.42 1782.45Z" fill="#565656"/>
<path d="M2484.8 1817.77C2516.32 1807.26 2524.04 1802.02 2518.13 1789.23L2552.34 1852.61C2533.59 1828.71 2523.22 1804.63 2486.47 1822.28C2460.68 1834.75 2463.2 1862.71 2481.73 1877.54C2489.22 1883.21 2501.77 1884.56 2522.26 1874.89C2530.37 1871.04 2560.14 1851.7 2580.32 1873.72C2606.83 1902.11 2559.54 1933.6 2534.94 1946.35L2484.97 1908.81C2518.44 1932.82 2543.78 1937.04 2559.43 1924.68C2574.04 1913.16 2574.49 1897.67 2559.36 1885.24C2550.68 1878.09 2540.34 1871.3 2522.84 1879.54C2499.41 1890.12 2479.76 1902.04 2462.85 1889.82C2436.36 1869.94 2446.34 1829.97 2484.8 1817.77Z" fill="#565656"/>
<path d="M2467.29 1995.87C2458.94 2000.77 2444.01 1996.79 2415.38 1956C2396.1 1928.62 2369.04 1900.89 2393.66 1885.1L2328.95 1924.86C2347.64 1915.38 2359.05 1910.38 2378.46 1929.65C2387.61 1938.74 2396.6 1947.92 2393.1 1952.75C2388.38 1959.21 2377.23 1945.78 2355.98 1956.17C2337.09 1965.32 2324.01 1985.39 2341.01 2013.06C2359.4 2042.99 2383.13 2051.14 2411.68 2034.49C2431.88 2022.75 2448.5 2008.08 2467.29 1995.87ZM2424.95 2017.64C2417.97 2028.4 2397.4 2033.01 2371.16 2015.7C2349.74 2000.78 2342.65 1980.18 2350.88 1967.1C2357.55 1956.54 2379.07 1950.22 2403.55 1967.94C2428.5 1986.05 2431.49 2007.61 2424.95 2017.64Z" fill="#565656"/>
<path d="M2230.41 1977.81C2240.26 1972.89 2261.49 1964.83 2271.25 1975.02C2287.64 1992.1 2281.18 2008.06 2253.75 2005.42C2234.81 2003.63 2219.62 1977.04 2208.42 1965.66C2197.72 1954.87 2188.72 1961.49 2141.33 1985.17C2180.22 1968.28 2195.25 1970.75 2211.64 1993.77C2230.05 2019.59 2256.64 2009.49 2267 2010.26C2269.2 2010.43 2269.71 2012.73 2267.59 2013.57C2263.34 2015.27 2258.25 2016.97 2252.98 2020.87C2239.56 2030.55 2227.92 2051.43 2242.43 2077.08C2255.42 2100.1 2278.26 2106.31 2304.25 2093.75C2328.2 2082.21 2341.02 2071.35 2356.91 2063.2C2341.45 2070.5 2322.86 2042.64 2308.27 2014.69C2289.93 1979.7 2271.69 1957.19 2298.35 1943.87L2230.41 1977.81ZM2262.05 2066.22C2247.28 2043.88 2250.18 2026.31 2263.43 2019.69C2287.04 2007.89 2295.69 2023.1 2309.02 2041.7C2321.75 2059.53 2331.26 2074.31 2310.7 2084.58C2296.43 2091.71 2278.77 2091.62 2262.05 2066.22Z" fill="#565656"/>
<path d="M2127.43 2019.95C2094.97 2032.88 2081.4 2069.14 2097.56 2109.71C2111.04 2143.59 2147.26 2161.66 2178.84 2149.09C2210.42 2136.52 2224.13 2098.57 2210.64 2064.7C2194.49 2024.12 2157.25 2008.09 2127.43 2019.95ZM2178.54 2053.36C2209.2 2082.64 2212.15 2114.17 2198.4 2129.45C2187.81 2141.84 2155.51 2142.85 2125.05 2114.1C2095.09 2086.58 2091.68 2058.5 2105.39 2042.63C2116.34 2029.07 2145.97 2026.47 2178.54 2053.36Z" fill="#565656"/>
<path d="M2031.34 2152.56C2025.13 2169.45 2031.28 2205.34 2073.74 2186.56C2088.92 2179.78 2111.77 2148.08 2080.53 2107.16C2043.45 2067.29 2063.81 2052.3 2072.58 2044.76C2057.13 2057 2042.37 2059.47 2014.12 2061.42C1978.47 2063.91 1963.49 2099.11 1986.3 2129.74C1995.6 2142.14 2006.58 2149.82 2028.1 2148.6C2031.23 2148.41 2032.16 2150.11 2031.34 2152.56ZM2090.99 2155.43C2088.81 2171.85 2073.47 2184.46 2064.15 2185.21C2049.6 2186.42 2050.64 2158.81 2055.44 2143.75C2057.22 2138.02 2063.12 2118.23 2070.72 2115.83C2082.24 2112.59 2093.44 2137.33 2090.99 2155.43ZM2049 2084.86C2062.29 2102.37 2063.51 2123.88 2051.65 2133C2040.03 2142.25 2019.36 2135.43 2005.83 2117.8C1992.54 2100.29 1991.32 2078.77 2003 2069.71C2014.85 2060.59 2035.52 2067.41 2049 2084.86Z" fill="#565656"/>
<path d="M1860.37 2103.72L1959.3 2079.81C1952.61 2093.35 1951.35 2113.19 1960.74 2148.03C1969.78 2181.4 1988.83 2207.66 1996.98 2207.45L1908.39 2228.86C1917.39 2226.49 1949.52 2216.38 1959.41 2205.59C1972.38 2191.32 1947.69 2168.38 1942.89 2122.65C1941.01 2104.35 1932.64 2090.75 1912.52 2095.61C1863.13 2104.61 1876.67 2133.18 1889.74 2169.49L1860.37 2103.72Z" fill="#565656"/>
<path d="M1758.74 2121.17L1853.45 2104.98C1844.77 2119.56 1843.73 2141.7 1850.45 2173.11C1858.12 2208.98 1873.21 2234.14 1882.39 2234.88C1852.16 2232.73 1801.93 2239.77 1791.61 2250.39L1766.25 2193.28C1767.44 2195.77 1780.73 2222.78 1805.64 2231.04C1816.31 2235.96 1854.2 2235.65 1851.07 2217.31C1845.12 2182.5 1802.3 2178.83 1796.33 2190.06C1794.29 2195.04 1795.45 2204.08 1796.4 2207.39L1777.09 2157.52C1820.52 2197.49 1837.51 2177.44 1835.87 2157.68C1835.66 2153.1 1834.41 2144.64 1829.06 2133.61C1820.33 2120.85 1809.54 2117.49 1798.03 2118.88C1761.59 2123.18 1760.37 2154.41 1757.75 2193.19L1758.74 2121.17Z" fill="#565656"/>
<path d="M1611.38 2164.6C1616.21 2180.57 1623.83 2204.49 1627.05 2212.98C1629.56 2219.81 1634.87 2219.54 1635.94 2212.2C1639.68 2185.19 1649 2137.1 1659.02 2136.22C1673.4 2134.96 1687.96 2183.62 1698.48 2208.05C1700.65 2213.2 1705.19 2212.8 1705.52 2207.82C1706.25 2198.8 1708.88 2172.26 1710.3 2160.13C1713.43 2132.79 1690.09 2129.69 1672.09 2130.88L1747.75 2124.25C1745.12 2124.67 1726.64 2124.77 1720.07 2145.55C1714.41 2163.58 1708.48 2206.8 1709.32 2227.31C1710.35 2247.8 1718.29 2260.07 1739.68 2258.39C1708.26 2260.95 1698.59 2263.7 1696.33 2257.42C1695.31 2254.46 1688.46 2230.66 1686.82 2225.09C1674.76 2191.83 1665.68 2157.75 1656.23 2158.76C1647.93 2159.68 1643.09 2193.65 1638.19 2229.16C1637.56 2234.93 1634.96 2259.75 1634.47 2262.84C1633.32 2269.23 1624.28 2268.31 1591.95 2271.33C1614.63 2269.15 1619.58 2253.85 1615.87 2231.11C1614.19 2220.58 1598.69 2172 1591.26 2156.83C1581.73 2137.27 1568.07 2140.18 1566.35 2140.14L1642.01 2133.52C1625.57 2135.15 1604.66 2142.32 1611.38 2164.6Z" fill="#565656"/>
<path d="M1551.39 2292.34H1455.31C1466.33 2279.43 1471.07 2257.78 1469.74 2225.69C1468.22 2189.04 1457.59 2161.7 1448.67 2159.42C1478.1 2166.64 1528.8 2168.16 1540.76 2159.42L1556.14 2219.99C1555.38 2217.34 1546.84 2188.47 1523.67 2176.13C1513.99 2169.48 1476.58 2163.41 1476.58 2182.02C1476.58 2217.34 1518.16 2228.16 1525.95 2218.1C1528.8 2213.54 1529.18 2204.42 1528.8 2201.01L1539.43 2253.41C1503.35 2206.7 1483.23 2223.6 1481.52 2243.35C1480.95 2247.91 1480.76 2256.45 1484.17 2268.22C1490.63 2282.28 1500.69 2287.4 1512.28 2287.97C1548.93 2289.87 1555.38 2259.3 1564.5 2221.51L1551.39 2292.34Z" fill="#565656"/>
<path d="M1403.31 2137.01C1433.68 2150.48 1442.92 2151.8 1447.17 2138.37L1429.76 2208.26C1432 2177.96 1440.56 2153.18 1401.51 2141.47C1374.05 2133.32 1357.08 2155.68 1360.78 2179.11C1362.5 2188.35 1370.86 2197.8 1392.52 2204.46C1401.11 2207.08 1436.14 2212.83 1436.22 2242.71C1436.69 2281.54 1380.52 2272.97 1353.76 2265.81L1342.11 2204.41C1350.68 2244.7 1366.56 2264.89 1386.45 2266.29C1405.01 2267.62 1415.78 2256.48 1412.97 2237.1C1411.37 2225.97 1408.3 2213.98 1389.81 2208.29C1365.38 2200.32 1342.82 2195.9 1338.55 2175.47C1332.37 2142.94 1366.67 2120.12 1403.31 2137.01Z" fill="#565656"/>
<path d="M1233.76 2114.67C1199.24 2109.29 1169.12 2133.61 1162.4 2176.76C1156.78 2212.79 1178.77 2246.77 1212.36 2252C1245.94 2257.24 1277.05 2231.53 1282.66 2195.51C1289.38 2152.35 1265.47 2119.61 1233.76 2114.67ZM1260.78 2169.42C1272.29 2210.22 1258.8 2238.87 1239.2 2245.04C1223.77 2250.32 1195.44 2234.76 1183.84 2194.52C1172.04 2155.59 1183.38 2129.68 1203.25 2122.98C1219.58 2116.88 1246.41 2129.7 1260.78 2169.42Z" fill="#565656"/>
<path d="M1099.63 2091.38C1135.77 2102 1136.49 2112.49 1130.11 2167.52C1127.15 2192.36 1124.79 2217.92 1115.35 2215.76C1082.55 2208.44 1098.09 2087.91 1069.03 2081.25C1052 2077.35 1047.34 2097.71 1043.03 2117.37C1037.66 2141.66 1032.84 2182.24 1035.77 2202.59C1037.13 2212.84 1038.79 2213.22 1044.4 2215.09L1098.08 2227.39C1063.34 2217.48 1057.24 2211.79 1054.22 2191.82C1048.97 2156.91 1054.94 2097.7 1072.3 2104.4C1093.05 2112.47 1078.89 2226.11 1125.53 2236.79C1137.48 2237.39 1127.56 2229.66 1150.17 2124.19C1153.37 2109.34 1164.57 2107.23 1173.67 2108.34L1099.63 2091.38Z" fill="#565656"/>
<path d="M936.357 2120.08C920.254 2158.03 918.324 2171.35 937.251 2174.42C949.547 2176.43 957.253 2166.29 965.532 2144.01C970.127 2131.71 976.74 2112.89 980.267 2095.69C987.052 2062.81 975.471 2057.84 961.713 2052.2L1034.28 2074.63C1019.74 2071.52 1006.76 2068.5 994.236 2100.01C987.263 2116.14 982.17 2135.83 979.32 2148.27C973.58 2171.34 975.49 2184.45 986.233 2189.56C1005.47 2198.68 1011.32 2175.25 1016.91 2144.98L1013.53 2207.34C1006.65 2203.22 988.727 2193.71 960.063 2184.85C931.399 2175.99 911.955 2173.95 903.956 2173.47L936.357 2120.08Z" fill="#565656"/>
<path d="M770.415 2043.4C749.103 2104.91 782.641 2126.46 817.216 2139.77L848.649 2153.2C840.739 2148.99 837.914 2143.04 847.326 2114.23C854.006 2093.75 861.189 2075.96 871.785 2056.95C887.382 2029.13 892.291 2027.3 900.848 2030.96L859.636 2013.36C830.822 2001.05 791.678 1982.48 770.415 2043.4ZM854.428 2015.88C868.973 2022.92 870.085 2034.34 859.414 2053.53C849.365 2071.74 841.464 2093.14 835.304 2110.95C828.771 2129.64 821.725 2136.95 807.231 2130.76C789.593 2123.23 769.582 2111.59 788.86 2058.7C812.884 1992.78 838.187 2008.95 854.428 2015.88Z" fill="#565656"/>
<path d="M704.807 1938.47L789.921 1983.05C774.174 1989.38 759.925 2006.35 746.214 2035.4C730.556 2068.57 727.289 2097.72 734.138 2103.88C711.414 2083.83 667.207 2058.97 652.557 2061.15L667.036 2000.36C666.475 2003.07 660.653 2032.6 675.448 2054.28C680.944 2064.66 711.261 2087.4 719.895 2070.91C736.282 2039.63 704.466 2010.75 692.9 2016.05C688.262 2018.76 683.697 2026.66 682.448 2029.87L697.344 1978.51C707.631 2036.63 733.302 2030.99 743.978 2014.29C746.597 2010.52 750.73 2003.04 753.164 1991.02C753.965 1975.58 747.428 1966.37 737.432 1960.49C705.848 1941.81 685.945 1965.89 660.339 1995.14L704.807 1938.47Z" fill="#565656"/>
<path d="M657.078 1910.84C677.197 1937.28 684.653 1942.9 694.853 1933.18L645.904 1986.02C662.472 1960.55 681.915 1942.96 653.358 1913.88C633.224 1893.5 607.577 1904.9 599.52 1927.22C596.571 1936.14 599.339 1948.45 615.108 1964.73C621.371 1971.16 649.285 1993.1 634.946 2019.31C616.637 2053.56 571.565 2018.97 551.566 1999.79L570.964 1940.38C559.046 1979.81 563.23 2005.15 579.976 2015.97C595.598 2026.09 610.398 2021.52 617.285 2003.18C621.249 1992.66 624.337 1980.68 610.889 1966.78C593.323 1948.02 575.695 1933.26 581.806 1913.31C592.068 1881.83 633.129 1878.38 657.078 1910.84Z" fill="#565656"/>
<path d="M533.316 1823.21C550.102 1851.88 556.826 1858.36 568.123 1849.93L513.164 1896.49C532.681 1873.2 554.101 1858.09 529.256 1825.78C511.726 1803.12 484.891 1811.35 474.203 1832.53C470.201 1841.03 471.465 1853.59 485.158 1871.65C490.6 1878.79 515.667 1903.93 498.274 1928.22C475.97 1960.02 435.396 1920.24 417.853 1898.8L444.269 1842.16C427.687 1879.86 428.787 1905.52 444.106 1918.29C458.396 1930.21 473.638 1927.46 482.684 1910.08C487.888 1900.11 492.397 1888.6 480.723 1873.17C465.546 1852.43 449.823 1835.66 458.294 1816.59C472.276 1786.58 513.453 1788.1 533.316 1823.21Z" fill="#565656"/>
<path d="M445.056 1738.12C420.326 1713.44 381.659 1715.36 350.807 1746.27C325.053 1772.07 322.809 1812.49 346.866 1836.5C370.924 1860.51 411.202 1858.06 436.956 1832.25C467.808 1801.34 467.769 1760.79 445.056 1738.12ZM434.641 1798.28C419.91 1838.04 392.131 1853.24 372.656 1846.68C357.076 1841.86 343.352 1812.6 357.681 1773.25C371.071 1734.84 395.494 1720.58 415.506 1726.87C432.294 1731.55 446.417 1757.72 434.641 1798.28Z" fill="#565656"/>
<path d="M334.718 1615.11L398.447 1694.46C383.352 1694.16 364.861 1701.46 337.326 1724.79C310.975 1747.17 295.312 1775.58 298.973 1782.87L241.902 1711.81C247.876 1718.94 270.697 1743.72 284.673 1748.08C303.099 1753.74 313.359 1721.64 352.696 1697.84C368.454 1688.35 377.207 1674.99 364.247 1658.85C335.079 1617.98 314.989 1642.4 287.699 1669.67L334.718 1615.11Z" fill="#565656"/>
<path d="M172.849 1579.38C157.638 1578.85 151.958 1570.97 150.154 1568.74L222.956 1688.47C221.8 1685.84 217.221 1676.85 223.751 1663.1C229.639 1650.86 238.203 1645.2 251.899 1642.88C289.279 1636.37 337.442 1613.98 302.626 1557.81C268.783 1501.05 226.736 1533.51 203.76 1563.7C195.291 1574.63 186.431 1579.79 172.849 1579.38ZM299.057 1559.98C319.575 1593.73 293.769 1613.42 256.771 1618.36C227.778 1622.21 228.397 1638.94 216.254 1650.77C207.124 1659.88 195.166 1642.04 186.781 1628.25C178.494 1614.62 168.158 1595.79 180.346 1591.71C196.435 1586.38 210.091 1593.85 227.768 1570.66C250.52 1540.82 279.623 1528.02 299.057 1559.98Z" fill="#565656"/>
<path d="M161.353 1439.58C121.912 1451.59 110.462 1458.65 120.255 1475.13C126.603 1485.86 139.324 1485.26 161.728 1477.31C174.104 1472.94 192.785 1465.93 208.235 1457.6C237.808 1441.7 234.188 1429.63 229.687 1415.46L259.054 1485.51C252.102 1472.36 246.087 1460.47 213.888 1471.09C197.043 1476.09 178.673 1484.82 167.307 1490.62C145.932 1501.02 137.102 1510.9 140.078 1522.42C145.425 1543.03 167.151 1532.48 193.95 1517.33L143.961 1554.76C142.702 1546.85 138.496 1526.99 126.896 1499.32C115.296 1471.65 104.378 1455.44 99.617 1448.99L161.353 1439.58Z" fill="#565656"/>
<path d="M222.956 1396.52C218.097 1380.53 210.533 1371.8 184.426 1375.73C170.799 1377.77 162.055 1383.16 148.464 1374.74C138.199 1368.34 122.337 1356.01 119.892 1359.25C115.58 1364.99 146.206 1381.48 167.058 1392.61C176.08 1397.39 185.379 1403.86 181.688 1410.41C177.733 1417.43 166.755 1416.94 154.759 1407.87C144.035 1399.83 140.87 1396.97 133.077 1391.65C124.583 1385.94 112.611 1394.6 106.456 1398.69C92.8384 1407.81 91.3895 1418.86 94.9345 1432.27L74.508 1359.11C78.6954 1374.11 87.7603 1380.45 101.146 1379.67C121.34 1378.56 124.799 1380.36 130.618 1384.25C147.374 1395.54 159.34 1405.21 160.96 1400.42C162.902 1393.97 130.089 1376.71 110.663 1367.15C102.211 1363.01 95.7872 1355.54 99.7715 1347.92C103.097 1341.47 113.467 1343.3 122.715 1349.59C131.962 1355.88 134.03 1359.05 141.04 1364.39C156.099 1375.96 169.176 1365.6 180.086 1360.19C203.996 1348.39 206.832 1340.89 202.53 1323.36L222.956 1396.52Z" fill="#565656"/>
<path d="M195.351 1261.99C190.558 1227.39 158.587 1205.55 115.327 1211.54C79.214 1216.55 53.0074 1247.4 57.6708 1281.06C62.3341 1314.73 95.9135 1337.11 132.026 1332.11C175.287 1326.12 199.754 1293.78 195.351 1261.99ZM150.704 1303.64C114.945 1326.42 83.6262 1321.75 72.0709 1304.76C62.5674 1291.5 69.3081 1259.9 104.503 1237.2C138.381 1214.68 166.456 1218.07 178.601 1235.18C189.15 1249.05 184.593 1278.44 150.704 1303.64Z" fill="#565656"/>
<path d="M185.931 1129.88C182.692 1167.41 172.553 1170.19 117.35 1174.85C92.4151 1176.87 66.8915 1179.64 67.1393 1169.96C67.8093 1136.35 189.027 1127.68 189.79 1097.88C190.236 1080.41 169.356 1079.88 149.23 1079.55C124.359 1079.11 83.6251 1082.43 64.2636 1089.35C54.4904 1092.71 54.4467 1094.41 53.7266 1100.28L52.3179 1155.33C55.1391 1119.31 59.4997 1112.21 78.4816 1105.29C111.651 1093.22 170.875 1087.33 167.746 1105.67C163.956 1127.61 49.7665 1136.27 48.5424 1184.11C50.3292 1195.93 55.9357 1184.68 163.793 1185.92C178.984 1186.12 183.272 1196.67 183.988 1205.81L185.931 1129.88Z" fill="#565656"/>
<path d="M192.908 1047.28C176.139 1075.97 173.79 1085 186.669 1090.72L119.154 1065.63C149.017 1071.23 172.685 1082.49 188.68 1045C199.843 1018.62 179.515 999.258 155.812 1000.32C146.442 1001 136.115 1008.25 127.087 1029.04C123.526 1037.28 113.895 1071.45 84.2011 1068.19C45.5524 1064.33 60.3398 1009.47 70.4368 983.674L132.753 978.946C91.764 982.966 69.9311 996.501 66.3132 1016.11C62.924 1034.41 72.7895 1046.35 92.3678 1045.72C103.609 1045.37 115.86 1043.65 123.584 1025.92C134.224 1002.53 141.138 980.604 161.913 978.643C194.929 976.121 213.78 1012.76 192.908 1047.28Z" fill="#565656"/>
<path d="M274.915 804.499L232.957 897.226C226.396 883.628 211.523 870.437 178.262 856.429C146.385 843.047 113.963 841.924 109.119 848.485L146.693 765.446C143.03 774.001 131.251 805.561 133.68 819.999C136.965 838.993 170.24 833.624 209.255 857.947C224.845 867.711 240.72 869.476 249.252 850.619C272.513 806.122 241.653 799.244 204.985 787.238L274.915 804.499Z" fill="#565656"/>
<path d="M286.647 791.067C303.056 764.6 227.86 715.076 237.672 689.88C239.567 685.023 245.27 686.995 255.921 693.598C282.872 710.308 298.065 720.397 303.63 734.124C307.997 745.098 302.407 757.718 296.471 769.454L336.493 704.901C329.89 715.552 318.018 716.682 307.69 710.278C220.11 659.108 214.223 645.181 205.634 657.953C183.393 691.304 168.107 739.022 239.61 791.619C262.778 808.664 276.941 806.721 286.647 791.067ZM268.859 775.794C251.594 805.082 164.954 740.865 199.408 678.445C202.887 672.113 207.248 670.124 215.482 681.708C228.025 699.315 277.541 761.069 268.859 775.794Z" fill="#565656"/>
<path d="M387.676 640.591C358.425 656.347 351.715 662.838 359.732 674.427L315.158 617.848C337.736 638.18 352.077 660.123 385.254 636.442C408.523 619.728 401.248 592.617 380.458 581.184C372.106 576.882 359.511 577.699 340.982 590.742C333.649 595.927 307.634 620.085 283.98 601.841C252.994 578.421 294.183 539.286 316.238 522.516L371.902 550.927C334.815 533.016 309.127 533.203 295.829 548.059C283.408 561.917 285.613 577.247 302.655 586.905C312.434 592.46 323.786 597.374 339.614 586.256C360.879 571.825 378.197 556.708 396.955 565.851C426.455 580.891 423.471 621.988 387.676 640.591Z" fill="#565656"/>
<path d="M504.796 524.455L434.294 589.732C433.603 572.775 422.379 553.666 399.602 531.022C373.589 505.163 347.21 492.323 339.113 496.715C365.612 482.013 403.845 448.683 406.689 434.147L459.128 468.144C456.764 466.709 430.885 451.336 405.502 458.018C393.88 459.721 362.304 480.677 374.947 494.331C398.942 520.247 436.809 499.936 435.684 487.263C434.678 481.984 428.764 475.038 426.163 472.788L469.572 504.019C411.363 494.254 408.075 520.33 420.238 535.981C422.916 539.712 428.582 546.111 439.088 552.428C453.372 558.352 464.24 555.277 473.126 547.825C501.307 524.32 485.275 497.502 466.29 463.582L504.796 524.455Z" fill="#565656"/>
<path d="M536.977 349.5C536.092 334.305 543.411 327.918 545.47 325.914L433.006 409.516C435.518 408.122 444.048 402.727 458.343 407.953C471.083 412.679 477.505 420.681 481.094 434.102C491.04 470.717 517.808 516.593 570.5 476.714C623.872 437.749 587.656 398.896 555.461 378.821C543.795 371.403 537.831 363.061 536.977 349.5ZM568.008 473.361C536.311 496.924 514.31 473.057 505.958 436.677C499.433 408.166 482.828 410.336 469.925 399.344C460.01 391.098 476.664 377.536 489.617 367.907C502.418 358.391 520.204 346.352 525.395 358.109C532.203 373.633 526.028 387.924 550.761 403.372C582.577 423.256 598.029 451.045 568.008 473.361Z" fill="#565656"/>
<path d="M714.66 378.98L627.592 431.685C629.878 416.761 625.081 397.469 605.585 367.097C586.877 338.025 560.782 318.75 553.075 321.418L631.046 274.219C623.185 279.2 595.613 298.554 589.445 311.832C581.405 329.351 611.877 343.756 630.278 385.888C637.606 402.761 649.696 413.199 667.402 402.481C711.761 378.958 690.211 355.824 666.774 325.174L714.66 378.98Z" fill="#565656"/>
<path d="M807.202 332.299L721.249 375.238C725.331 358.765 719.903 337.279 704.373 309.165C686.636 277.06 664.904 257.351 655.902 259.301C685.456 252.603 731.49 231.304 738.288 218.144L779.117 265.458C777.249 263.42 756.707 241.419 730.467 240.73C718.834 239.112 682.655 250.394 690.971 267.041C706.755 298.636 748.792 289.734 751.259 277.252C751.771 271.903 748.037 263.579 746.17 260.691L779.104 302.823C725.954 277.159 715.5 301.272 722.797 319.702C724.324 324.033 727.973 331.762 736.292 340.766C748.347 350.451 759.641 350.54 770.257 345.873C803.89 331.194 796.003 300.96 787.27 263.084L807.202 332.299Z" fill="#565656"/>
<path d="M931.599 281.943C921.258 285.732 899.258 291.368 890.697 280.146C876.325 261.347 884.529 246.207 911.489 251.899C930.106 255.795 942.23 283.912 952.092 296.476C961.515 308.393 971.203 302.82 1020.95 284.592C980.403 297.022 965.743 292.889 952.038 268.183C936.622 240.464 909.077 247.525 898.868 245.604C896.693 245.187 896.444 242.852 898.649 242.246C903.059 241.035 908.312 239.918 913.982 236.627C928.4 228.512 942.303 209.059 930.75 181.947C920.42 157.622 898.417 148.9 871.186 158.474C846.095 167.265 832.134 176.628 815.44 182.948C831.617 177.424 846.973 207.187 858.353 236.587C872.656 273.41 888.275 297.819 860.283 308.077L931.599 281.943ZM910.038 190.548C922.216 214.398 917.376 231.541 903.469 236.637C878.687 245.719 871.785 229.643 860.622 209.668C849.965 190.519 842.171 174.77 863.744 166.864C878.721 161.376 896.263 163.441 910.038 190.548Z" fill="#565656"/>
<path d="M1075.83 237.251L983.384 263.415C990.464 247.992 989.137 225.871 979.12 195.355C967.678 160.506 950.001 137.092 940.793 137.33C971.078 136.258 1020.27 123.913 1029.41 112.251L1060.7 166.346C1059.25 163.995 1043.16 138.551 1017.51 132.983C1006.38 129.225 968.737 133.565 973.804 151.471C983.422 185.454 1026.38 184.545 1031.13 172.741C1032.63 167.58 1030.52 158.707 1029.22 155.522L1053.72 203.053C1006.29 167.932 991.523 189.674 995.256 209.141C995.949 213.681 998.094 221.955 1004.59 232.352C1014.63 244.114 1025.71 246.307 1037.01 243.7C1072.79 235.548 1070.67 204.374 1069.15 165.533L1075.83 237.251Z" fill="#565656"/>
<path d="M1062.4 103.068C1071.92 101.287 1084.6 110.097 1097.69 158.192C1106.52 190.49 1122.56 225.753 1094.05 232.251L1168.42 216.822C1147.62 219.392 1135.18 220.226 1123.46 195.508C1117.94 183.854 1112.61 172.161 1117.54 168.812C1124.17 164.332 1130.1 180.75 1153.61 178.198C1174.49 176 1193.6 161.563 1187.01 129.77C1179.87 95.3737 1160.32 79.6496 1127.81 85.6177C1104.83 89.8045 1084.22 97.959 1062.4 103.068ZM1109.61 96.9576C1119.83 89.2128 1140.74 91.8558 1159.54 117.044C1174.63 138.349 1174.3 160.137 1162.12 169.646C1152.27 177.314 1129.88 175.948 1112.87 150.97C1095.55 125.473 1100.05 104.176 1109.61 96.9576Z" fill="#565656"/>
<path d="M1266.72 203.723C1301.34 199.052 1323.29 167.158 1317.45 123.877C1312.57 87.7469 1281.82 61.4316 1248.13 65.976C1214.45 70.5204 1191.95 104.021 1196.82 140.151C1202.66 183.432 1234.91 208.014 1266.72 203.723ZM1225.22 158.929C1202.57 123.089 1207.35 91.7876 1224.39 80.2923C1237.67 70.8357 1269.25 77.688 1291.83 112.963C1314.23 146.92 1310.74 174.983 1293.59 187.068C1279.68 197.567 1250.31 192.907 1225.22 158.929Z" fill="#565656"/>
<path d="M1402.33 187.549C1364.66 187.682 1360.99 177.833 1351.4 123.269C1347.15 98.6155 1342.11 73.4421 1351.78 72.8221C1385.3 70.4809 1404.8 190.435 1434.55 188.527C1451.98 187.408 1450.64 166.564 1449.17 146.49C1447.38 121.678 1440.42 81.4058 1431.81 62.741C1427.59 53.3077 1425.88 53.4171 1419.97 53.2255L1365.02 56.7508C1401.14 56.3361 1408.61 60.043 1417.2 78.3288C1432.19 110.285 1443.36 168.743 1424.81 167.27C1402.62 165.458 1383.77 52.5033 1336.02 55.5667C1324.4 58.4048 1336.11 62.9813 1344.53 170.517C1345.7 185.664 1335.57 190.881 1326.53 192.412L1402.33 187.549Z" fill="#565656"/>
<path d="M1496.76 183.26C1465.65 171.586 1456.35 170.8 1452.89 184.461L1466.2 113.673C1465.73 144.053 1458.63 169.287 1498.29 178.707C1526.19 185.244 1541.82 161.934 1536.77 138.753C1534.51 129.632 1525.61 120.682 1503.6 115.301C1494.88 113.187 1459.57 109.476 1457.76 79.6591C1455.02 40.9147 1511.59 46.2063 1538.73 51.7919L1553.93 112.409C1543.03 72.6918 1526 53.4638 1506.06 53.2159C1487.46 52.9719 1477.36 64.7153 1481.29 83.9051C1483.54 94.9249 1487.3 106.709 1506.08 111.321C1530.94 117.849 1553.72 120.954 1559.17 141.097C1567.24 173.211 1534.31 197.99 1496.76 183.26Z" fill="#565656"/>
<path d="M1670.17 191.607L1574.31 185.176C1586.16 173.03 1592.35 151.75 1593.17 119.642C1594.11 82.9754 1585.33 54.9817 1576.57 52.1109C1605.46 61.2801 1655.94 66.189 1668.46 58.2745L1679.75 119.741C1679.17 117.038 1672.58 87.6683 1650.29 73.8031C1641.07 66.5239 1604.16 57.9577 1602.91 76.5246C1600.55 111.764 1641.32 125.346 1649.76 115.826C1652.9 111.469 1653.89 102.401 1653.74 98.9652L1660.84 151.967C1627.97 102.946 1606.76 118.461 1603.73 138.05C1602.86 142.559 1602.1 151.072 1604.72 163.047C1610.22 177.499 1619.92 183.288 1631.44 184.631C1667.88 188.979 1676.36 158.908 1687.99 121.816L1670.17 191.607Z" fill="#565656"/>
<path d="M1841.12 156.838C1841.29 180.719 1831.75 196.871 1816.73 201.749C1800.37 207.757 1773.62 194.771 1759.47 154.973C1748.2 114.101 1761.86 85.5354 1781.5 79.4809C1792.47 75.8707 1808.83 81.7878 1822.21 100.112C1824.88 103.814 1826.96 106.458 1832.96 107.429L1862.92 112.47C1856.51 110.471 1852.65 106.962 1850.07 102.697C1840.82 87.3505 1826.56 75.6173 1808.38 72.6745C1774.83 67.2439 1743.57 92.7699 1737.75 128.759C1730.77 171.871 1754.49 204.757 1786.17 209.884C1818.04 215.041 1846.32 194.805 1855.98 157.705C1858.46 147.142 1858.74 140.648 1858.89 138.555C1859.06 136.276 1858.15 134.782 1855.9 134.418L1822.16 128.957C1839.07 132.655 1840.96 136.423 1841.12 156.838Z" fill="#565656"/>
<path d="M2061.89 275.061L1970.26 246.135C1984.65 237.137 1995.7 217.924 2004.09 186.922C2013.67 151.517 2011.77 122.241 2003.94 117.382C2029.84 133.123 2077.72 149.835 2091.76 145.107L2088.19 207.5C2088.27 204.737 2088.81 174.641 2070.43 155.897C2063.2 146.644 2029.36 129.588 2023.76 147.333C2013.12 181.013 2049.52 203.853 2059.97 196.6C2064.06 193.112 2067.17 184.535 2067.84 181.161L2062.2 234.339C2041.86 178.933 2017.57 188.989 2010 207.306C2008.08 211.481 2005.33 219.572 2005.05 231.827C2006.97 247.171 2015.03 255.089 2025.9 259.12C2060.28 271.963 2075.64 244.754 2095.7 211.464L2061.89 275.061Z" fill="#565656"/>
<path d="M2118.23 294.884C2093.58 272.605 2085.22 268.458 2076.99 279.897L2115.36 218.938C2103.77 247.024 2087.9 267.89 2121.33 291.212C2144.88 307.534 2167.98 291.593 2171.78 268.173C2173.04 258.863 2168.05 247.27 2149.55 234.184C2142.21 229.013 2110.73 212.599 2119.99 184.198C2131.67 147.155 2182.35 172.847 2205.54 188.005L2197.42 249.972C2201.87 209.027 2193.08 184.888 2174.63 177.337C2157.41 170.279 2143.71 177.495 2140.32 196.788C2138.36 207.863 2137.54 220.206 2153.32 231.392C2174.04 246.59 2194.09 257.84 2191.76 278.577C2187.48 311.412 2147.76 322.374 2118.23 294.884Z" fill="#565656"/>
<path d="M2297.57 297.715C2319.3 262.682 2323.25 249.82 2305.02 243.885C2293.18 240.011 2284.01 248.849 2272.41 269.599C2265.98 281.043 2256.56 298.63 2250.44 315.08C2238.69 346.533 2249.37 353.221 2262.1 360.908L2193.83 327.613C2207.73 332.911 2220.09 337.885 2237.3 308.671C2246.66 293.802 2254.72 275.124 2259.44 263.273C2268.65 241.357 2268.77 228.108 2258.94 221.411C2241.33 209.441 2231.95 231.699 2221.79 260.758L2234.69 199.656C2240.86 204.775 2257.11 216.929 2284.08 230.08C2311.04 243.231 2329.95 248.225 2337.78 249.931L2297.57 297.715Z" fill="#565656"/>
<path d="M2410.31 449.572L2324.49 394.854C2338.88 390.294 2354.05 377.448 2372.65 346.517C2390.43 316.867 2396.15 284.934 2390.35 279.206L2467.2 328.207C2459.25 323.365 2429.69 307.217 2415.05 307.568C2395.78 308.119 2396.36 341.819 2366.74 376.978C2354.86 391.021 2350.85 406.484 2368.31 417.612C2409.04 446.964 2420.24 417.395 2437.34 382.808L2410.31 449.572Z" fill="#565656"/>
<path d="M2576.38 589.766L2506.61 523.707C2523.49 521.903 2541.82 509.448 2562.91 485.231C2587.01 457.576 2598.09 430.409 2593.17 422.619C2609.58 448.094 2645.35 484.055 2660.05 485.937L2629.57 540.496C2630.84 538.044 2644.48 511.211 2636.15 486.321C2633.68 474.837 2610.7 444.706 2597.91 458.218C2573.62 483.864 2596.38 520.315 2608.95 518.36C2614.15 517.009 2620.69 510.651 2622.77 507.908L2594.46 553.275C2600.38 494.551 2574.14 492.984 2559.32 506.149C2555.77 509.066 2549.76 515.141 2544.15 526.039C2539.18 540.682 2542.96 551.324 2550.98 559.701C2576.28 586.277 2601.99 568.516 2634.59 547.344L2576.38 589.766Z" fill="#565656"/>
<path d="M2668.54 544.717C2647.97 580.293 2615.06 636.973 2622.58 646.032C2632.41 657.867 2725.06 618.471 2743.85 612.26C2764.43 605.542 2774.74 616.479 2776.19 618.232L2693.73 518.875C2684.39 507.624 2679.3 526.164 2668.54 544.717ZM2730.4 563.949C2737.07 571.986 2747.08 586.131 2742.54 597.306C2738.51 607.314 2733.22 611.947 2713.51 619.421C2688.5 628.828 2649.28 644.602 2643.82 638.027C2635.7 628.237 2670.97 570.833 2686.28 546.77C2698.77 527.029 2719.61 550.945 2730.4 563.949Z" fill="#565656"/>
<path d="M2701.44 753.468C2719.98 783.083 2758.08 789.919 2795.1 766.746C2826 747.401 2837.29 708.526 2819.25 679.717C2801.22 650.907 2761.42 644.233 2730.52 663.578C2693.5 686.751 2684.41 726.268 2701.44 753.468ZM2725.13 697.195C2748.43 661.773 2778.92 653.217 2796.42 663.993C2810.51 672.195 2817.3 703.791 2794.48 738.91C2772.79 773.323 2745.78 781.716 2727.7 771.081C2712.39 762.739 2704.52 734.063 2725.13 697.195Z" fill="#565656"/>
<path d="M2778.65 897.084L2736.27 804.552C2750.83 808.533 2770.54 805.976 2802.95 790.088C2833.97 774.833 2856.11 751.117 2854.34 743.155L2892.3 826.019C2888.25 817.639 2872.18 788.032 2859.7 780.384C2843.22 770.39 2825.42 799.012 2781.45 812.466C2763.85 817.814 2752.1 828.628 2760.72 847.445C2779 894.207 2804.46 875.448 2837.59 855.676L2778.65 897.084Z" fill="#565656"/>
<path d="M2925.52 974.023C2940.05 978.578 2943.43 987.684 2944.57 990.32L2906.22 855.535C2906.64 858.378 2908.66 868.266 2898.71 879.783C2889.78 890.023 2880.02 893.195 2866.2 891.797C2828.44 888.129 2776.05 896.913 2794.68 960.314C2812.22 1024.03 2861.38 1003.92 2891.56 980.923C2902.62 972.641 2912.54 970.018 2925.52 974.023ZM2798.7 959.171C2787.89 921.183 2818 909.062 2854.98 914.137C2883.96 918.134 2887.81 901.837 2902.66 893.663C2913.88 887.312 2920.67 907.69 2925.08 923.214C2929.45 938.555 2934.41 959.453 2921.57 960.143C2904.65 961.011 2893.47 950.174 2870.26 967.832C2840.4 990.543 2808.94 995.15 2798.7 959.171Z" fill="#565656"/>
<path d="M2897.66 1108.08C2938.88 1107.42 2951.84 1103.79 2946.97 1085.24C2943.83 1073.19 2931.44 1070.25 2907.71 1071.71C2894.61 1072.49 2874.72 1074.07 2857.57 1077.81C2824.76 1084.93 2824.91 1097.53 2825.32 1112.4L2816.43 1036.97C2819.48 1051.52 2821.98 1064.61 2855.86 1063.29C2873.43 1063.13 2893.5 1059.81 2906.02 1057.38C2929.44 1053.28 2940.65 1046.22 2940.97 1034.33C2941.52 1013.04 2917.73 1017.18 2887.79 1024.35L2946.17 1002.17C2945.19 1010.12 2943.75 1030.37 2947.27 1060.16C2950.78 1089.96 2956.8 1108.56 2959.6 1116.07L2897.66 1108.08Z" fill="#565656"/>
</svg>
