<svg width="279" height="276" viewBox="0 0 279 276" fill="none" xmlns="http://www.w3.org/2000/svg">
<path d="M16.9604 121.222H98.5649L40.8613 64.1395C34.2404 57.5899 34.2404 46.9686 40.8613 40.4162C47.4822 33.8665 58.2191 33.8665 64.8427 40.4162L122.546 97.4988V16.7752C122.546 7.51114 130.139 0 139.504 0C148.869 0 156.462 7.51114 156.462 16.7752V97.5014L214.16 40.4189C220.781 33.8692 231.518 33.8692 238.141 40.4189C244.762 46.9685 244.762 57.5899 238.141 64.1422L180.438 121.225H262.042C271.407 121.225 279 128.736 279 138C279 147.264 271.407 154.775 262.042 154.775H180.44L238.144 211.858C244.765 218.407 244.765 229.029 238.144 235.581C231.523 242.131 220.786 242.131 214.163 235.581L156.459 178.499V259.225C156.459 268.489 148.866 276 139.501 276C130.136 276 122.544 268.489 122.544 259.225V178.499L64.84 235.581C58.2191 242.131 47.4822 242.131 40.8586 235.581C34.235 229.031 34.2377 218.41 40.8586 211.858L98.5622 154.775H16.9578C7.59287 154.775 -4.98104e-06 147.264 -4.98104e-06 138C-4.98104e-06 128.736 7.59555 121.222 16.9604 121.222Z" fill="#B7AFA1"/>
</svg>
